<svg height="120" viewBox="0 0 120 120" width="120" xmlns="http://www.w3.org/2000/svg"><path d="m83.0772142 61.8519929c-.66162-1.6366389-1.0446631-3.4473884-1.0446631-5.3974262 0-7.2081756 5.8501135-13.5457987 13.1279334-14.7645723-.5223316-1.1839516-1.0446632-2.0545042-1.6018168-2.8554126-4.1090084-6.3028009-10.7600303-9.332324-16.7494323-9.2278577-7.5563966.0696442-13.336866 5.0492052-13.336866 13.336866 0 7.4519304 4.5268736 12.8493566 10.4814535 16.0878123 2.4027252 1.2884179 5.014383 2.1937926 9.1233913 2.8205905zm-44.1196063 0c4.0741862-.6267979 6.685844-1.5321726 9.1233913-2.8205905 5.9197578-3.2384557 10.4466314-8.6358819 10.4466314-16.0878123 0-8.2876608-5.7804694-13.2672218-13.3020439-13.336866-6.0242241-.1044663-12.675246 2.9250568-16.7842544 9.2278577-.5571536.8009084-1.0794852 1.671461-1.6018168 2.8554126 7.2778199 1.2187736 13.1279334 7.5563967 13.1279334 14.7645723 0 1.9500378-.348221 3.7607873-1.009841 5.3974262zm36.354277-18.3512491-4.9099167-4.1090083c-.6267979-.5223316-.66162-1.4625284-.1392884-2.0893263.5223316-.66162 1.4625284-.7312642 2.0893263-.2089326l4.8402725 4.0741862c.66162.5571537.7312642 1.4973505.2437547 2.1241484-.5571537.66162-1.4973505.6964421-2.1241484.2089326zm-30.7130961-.2089326c-.5223316-.6267979-.4526874-1.5669947.2089326-2.1241484l4.8402725-4.0741862c.66162-.5223316 1.6018168-.4526874 2.0893263.2089326.5223316.6267979.5223316 1.5669947-.1392884 2.0893263l-4.9099167 4.1090083c-.5919758.4875095-1.5669947.4526874-2.0893263-.2089326zm-17.4458743 22.7736563c5.362604 0 9.680545-3.342922 9.680545-9.6109008 0-5.8849357-5.3974262-11.8743376-12.5011355-11.8743376-5.7804693 0-9.332324 4.5268735-9.332324 9.5064345 0 7.0340651 5.989402 11.9788039 12.1529145 11.9788039zm67.694171 0c6.1635125 0 12.1529145-4.9447388 12.1529145-11.9788039 0-4.979561-3.517033-9.5064345-9.2975019-9.5064345-7.1037093 0-12.5359576 5.9894019-12.5359576 11.8743376 0 6.2679788 4.317941 9.6109008 9.680545 9.6109008zm1.6018168-4.8054504c-.9401968-.8009084-.3830431-2.4723694 1.5321726-4.9099167 1.98486-2.3679031 3.5866771-3.2036336 4.5616961-2.3679031.940196.8009084.383043 2.4723694-1.532173 4.8402725-1.9500378 2.4027252-3.6214988 3.2384557-4.5616957 2.4375473zm-75.4246782-2.4375473c-1.9152158-2.3679031-2.4723694-4.0393641-1.5321726-4.8402725.9750189-.8357305 2.5768357 0 4.5268736 2.3679031 1.9152157 2.4375473 2.4723694 4.1090083 1.5669947 4.9099167-.975019.8009084-2.64648-.0348221-4.5616957-2.4375473zm21.9727479 30.5738077c1.9500378 0 3.1339894-.9750189 3.1339894-2.8554126v-23.017411c-2.7161242 1.009841-5.7804693 1.7411052-9.0537472 2.1241484v20.8932626c0 1.8803937 1.2187737 2.8554126 3.1688115 2.8554126zm38.7570023 0c1.9848599 0 3.1688115-.9750189 3.1688115-2.8554126v-20.8932626c-3.2732779-.3830432-6.3028009-1.1143074-9.0537472-2.1241484v23.017411c0 1.8803937 1.1839516 2.8554126 3.1688115 2.8554126z" fill="#1d1d1f"/></svg>