<svg xmlns="http://www.w3.org/2000/svg" height="56" width="36"><path d="m0 0h36v56h-36z" fill="none"/><path d="m29 10h-22c-3.8599 0-7 3.1406-7 7v22c0 3.8594 3.1401 7 7 7h22c3.8599 0 7-3.1406 7-7v-22c0-3.8594-3.1401-7-7-7zm-19.0557 12.5527c.3896-.459 1.0391-.8008 1.5791-.8203.0137.0605.0205.1367.0205.2109 0 .5547-.2393 1.1074-.5674 1.5039-.3623.4375-.9707.7656-1.4561.7656-.0547 0-.1094-.0059-.1436-.0137-.0068-.0273-.0205-.1094-.0205-.1914 0-.5605.2803-1.1074.5879-1.4551zm3.083 8.5918c-.458.6562-.9434 1.3262-1.668 1.3262-.7383 0-.9229-.4297-1.7637-.4297-.8271 0-1.1211.4434-1.7842.4434-.6699 0-1.1348-.6152-1.668-1.3672-.6221-.8887-1.1279-2.2617-1.1279-3.5605 0-2.0918 1.3604-3.1992 2.7002-3.1992.7041 0 1.2988.4648 1.75.4648.417 0 1.0801-.4922 1.8936-.4922.3008 0 1.4014.0273 2.126 1.0664-.0615.0469-1.1553.6699-1.1553 2.0508 0 1.5918 1.3877 2.1602 1.4355 2.1738-.0137.0332-.2256.7715-.7383 1.5234zm10.4639 1.2168h-1.2461v-5.5098h-.0967l-2.1484 5.5098h-.9453l-2.1484-5.5098h-.0918v5.5098h-1.251v-7.75h1.5898l2.3311 5.9619h.0918l2.3252-5.9619h1.5898zm7.4932-1.4873h-1.042v1.4873h-1.3271v-1.4873h-3.791v-1.1338c1.0039-1.7451 2.1055-3.5283 3.1582-5.1289h1.96v5.1191h1.042v1.1436zm-2.4277-5.1562h.0801v4.0439h-2.5234v-.0801c.752-1.3164 1.6484-2.75 2.4434-3.9639z"/></svg>